<?xml version="1.0" standalone="no"?>
<!DOCTYPE svg PUBLIC "-//W3C//DTD SVG 20010904//EN"
 "http://www.w3.org/TR/2001/REC-SVG-20010904/DTD/svg10.dtd">
<svg version="1.0" xmlns="http://www.w3.org/2000/svg"
 width="1465.000000pt" height="722.000000pt" viewBox="0 0 1465.000000 722.000000"
 preserveAspectRatio="xMidYMid meet">

<g transform="translate(0.000000,722.000000) scale(0.100000,-0.100000)"
fill="#000000" stroke="none">
<path d="M2490 7090 c-160 -15 -328 -55 -465 -110 -11 -4 -60 -22 -110 -40
-225 -81 -593 -296 -885 -518 -101 -77 -244 -215 -303 -292 -23 -30 -44 -57
-47 -60 -3 -3 -21 -30 -41 -60 -38 -58 -55 -94 -84 -175 -10 -27 -22 -54 -25
-60 -14 -20 -50 -135 -50 -160 0 -28 -25 -45 -70 -45 -17 0 -67 -14 -112 -31
-168 -65 -268 -221 -268 -419 0 -73 3 -83 54 -187 56 -115 97 -163 175 -210
56 -34 161 -62 231 -63 67 0 75 -5 88 -50 43 -144 151 -442 189 -520 64 -131
196 -371 249 -452 120 -184 142 -218 191 -287 29 -40 53 -78 53 -83 0 -6 7
-24 14 -41 8 -18 31 -72 51 -122 20 -49 40 -99 45 -110 37 -83 43 -102 75
-265 8 -41 24 -118 35 -170 19 -84 22 -141 29 -500 5 -284 11 -412 19 -427 7
-12 12 -36 12 -54 0 -57 22 -202 36 -244 8 -23 14 -46 14 -52 0 -6 -23 -38
-50 -70 -54 -62 -84 -137 -74 -182 4 -14 22 -41 42 -58 l36 -33 102 7 101 6
34 -49 c48 -70 141 -154 230 -208 42 -25 82 -46 88 -46 18 0 13 -19 -22 -79
-54 -89 -87 -198 -87 -282 0 -126 106 -229 234 -229 75 0 126 21 186 76 48 45
63 68 90 136 33 84 84 200 99 228 7 12 44 16 197 21 104 4 209 9 234 13 56 9
166 34 200 46 14 5 59 18 100 30 135 40 324 102 370 122 247 111 620 330 790
467 24 20 56 45 69 56 14 11 62 55 107 98 46 42 87 77 92 77 10 0 65 -21 119
-46 17 -8 34 -14 37 -14 4 0 40 -22 81 -50 69 -46 78 -50 135 -50 47 0 73 6
120 30 53 27 63 37 90 90 40 79 40 131 0 210 -25 50 -42 67 -103 109 -79 53
-182 101 -219 101 -13 0 -32 7 -43 15 -17 14 -18 18 -6 48 27 65 48 154 81
338 5 26 12 100 15 165 4 66 13 125 19 133 15 19 13 1025 -2 1043 -6 7 -15 85
-22 173 -10 153 -25 264 -56 422 -23 120 -29 113 80 113 124 0 146 9 201 83
46 61 47 63 43 129 -3 55 -9 75 -33 109 -53 74 -85 84 -274 84 l-163 0 -22 65
c-44 127 -107 237 -196 339 -36 41 -52 70 -60 106 -81 375 -238 722 -442 984
-28 35 -51 75 -53 89 -1 15 14 56 38 101 71 130 78 258 21 380 -27 60 -49 88
-116 152 -71 67 -95 82 -168 110 -143 56 -248 42 -382 -50 -41 -28 -83 -51
-94 -51 -11 0 -42 14 -70 31 -60 39 -98 55 -234 101 -137 46 -190 58 -308 69
-109 9 -173 9 -282 -1z m295 -86 c121 -7 175 -21 365 -94 30 -12 67 -25 81
-30 54 -16 155 -81 314 -199 133 -99 364 -332 442 -446 34 -49 81 -117 104
-150 152 -217 204 -307 275 -483 19 -48 39 -96 44 -107 5 -11 18 -54 30 -95
12 -41 26 -86 31 -100 5 -14 13 -45 18 -70 33 -154 39 -170 77 -213 126 -138
122 -131 219 -382 85 -219 80 -204 105 -320 12 -55 26 -111 31 -124 5 -13 14
-74 18 -135 5 -61 14 -124 21 -141 6 -16 16 -93 22 -170 5 -77 15 -150 20
-162 27 -57 8 -1208 -21 -1321 -6 -20 -19 -91 -31 -157 -51 -290 -151 -507
-320 -688 -109 -118 -462 -361 -723 -497 -252 -131 -543 -242 -722 -276 -249
-46 -249 -46 -493 -42 -207 4 -247 7 -317 27 -159 44 -277 95 -343 148 -79 64
-85 70 -137 113 -111 95 -189 235 -247 445 -28 102 -52 398 -68 835 -13 374
-22 462 -68 640 -22 85 -53 182 -67 215 -15 33 -48 112 -74 175 -26 63 -67
147 -92 185 -25 39 -79 122 -119 185 -40 63 -83 131 -95 150 -101 157 -141
231 -235 433 -88 190 -116 263 -154 402 -27 94 -52 181 -57 195 -22 65 -58
234 -66 310 -14 145 -9 496 9 570 63 272 244 525 528 741 95 73 322 229 350
242 8 4 22 11 30 17 112 73 365 201 475 240 304 107 391 129 498 131 40 1 86
5 102 9 17 5 50 7 75 5 25 -3 99 -8 165 -11z m1051 -81 c27 -9 65 -26 84 -38
48 -31 131 -122 153 -168 27 -59 40 -171 27 -234 -11 -53 -52 -137 -72 -149
-6 -4 -40 24 -75 62 -68 74 -65 64 -47 168 8 48 -39 135 -89 163 -27 15 -102
17 -128 2 -42 -22 -75 -13 -140 37 -62 47 -79 62 -79 75 0 11 84 63 130 80 61
22 174 23 236 2z m-3366 -1438 c8 -9 10 -25 5 -42 -3 -16 -12 -57 -19 -93 -11
-61 -14 -65 -45 -71 -65 -13 -111 -81 -111 -164 0 -38 6 -54 35 -89 30 -37 44
-45 96 -56 65 -14 79 -28 79 -80 0 -17 7 -47 15 -67 8 -19 15 -44 15 -54 0
-80 -223 -17 -330 92 -80 82 -94 121 -94 259 -1 106 1 120 27 172 38 77 89
126 177 170 80 40 130 48 150 23z m4725 -907 c23 -10 41 -48 36 -75 -1 -5 -34
-7 -74 -5 -63 3 -73 1 -84 -16 -9 -16 -9 -22 0 -30 11 -9 27 -13 120 -28 48
-9 52 -17 25 -49 -31 -35 -145 -54 -213 -35 -53 15 -60 22 -73 80 -6 25 -15
63 -21 85 -15 57 -13 73 7 78 39 10 252 7 277 -5z m-170 -2849 c6 -4 37 -17
70 -30 33 -12 67 -28 76 -35 8 -8 21 -14 27 -14 14 0 78 -79 91 -113 18 -46
14 -77 -9 -77 -11 0 -20 6 -20 14 0 21 -68 93 -101 106 -30 13 -79 6 -79 -10
0 -13 61 -69 75 -70 11 0 45 -35 45 -46 0 -3 7 -12 15 -20 20 -20 19 -58 -1
-75 -10 -8 -40 -13 -73 -13 -48 0 -64 6 -116 40 -75 51 -182 104 -208 104 -16
0 -18 5 -12 28 3 15 13 34 20 42 7 8 27 45 45 81 44 94 61 109 107 102 21 -3
43 -9 48 -14z m-3394 -576 c18 -21 63 -113 58 -117 -37 -31 -108 -34 -134 -6
-17 19 -17 25 -6 58 13 36 47 82 61 82 4 0 13 -8 21 -17z m679 -578 c30 -7 86
-19 123 -25 56 -10 71 -17 79 -36 9 -19 7 -29 -15 -57 -14 -19 -29 -47 -32
-63 -12 -52 -66 -168 -94 -201 -11 -13 -25 -23 -33 -23 -8 0 -23 -7 -34 -15
-59 -45 -98 10 -84 117 5 34 12 80 16 101 6 35 5 37 -18 37 -43 0 -52 -24 -56
-136 -4 -101 -5 -104 -27 -104 -17 0 -29 11 -45 42 -39 75 -14 209 62 334 36
60 30 59 158 29z"/>
<path d="M2655 6917 c-55 -12 -122 -34 -149 -49 -27 -16 -51 -28 -53 -28 -8 0
-98 -65 -132 -95 -49 -44 -107 -134 -143 -222 -30 -73 -33 -88 -36 -218 l-4
-140 63 -125 c34 -69 78 -143 98 -165 74 -84 183 -149 301 -180 74 -19 301
-22 348 -4 49 18 226 111 259 135 70 53 162 201 192 309 14 51 14 267 0 320
-37 143 -152 302 -276 382 -62 39 -85 49 -178 73 -118 30 -179 32 -290 7z
m220 -66 c142 -30 267 -95 323 -169 15 -21 33 -41 39 -45 7 -4 13 -14 13 -21
0 -8 6 -19 14 -25 7 -6 16 -24 19 -39 3 -15 15 -37 26 -48 19 -21 46 -150 44
-214 -1 -45 -19 -135 -31 -157 -7 -12 -12 -29 -12 -38 0 -22 -80 -141 -127
-188 -58 -57 -126 -107 -147 -107 -11 0 -27 -6 -35 -14 -48 -41 -265 -59 -361
-31 -123 37 -188 74 -265 150 -63 62 -101 114 -122 163 -25 60 -53 181 -53
232 0 53 24 160 46 202 8 15 14 36 14 48 0 11 7 23 15 26 8 4 15 11 15 18 0
17 96 126 136 152 20 14 57 36 82 49 26 14 54 29 62 34 27 16 164 39 210 36
25 -2 68 -9 95 -14z"/>
<path d="M3013 6540 c-71 -54 -93 -88 -93 -144 0 -34 8 -56 31 -91 58 -86 125
-111 220 -85 40 11 109 81 109 110 0 10 5 22 10 25 15 9 2 93 -19 125 -48 75
-88 100 -158 99 -40 0 -57 -7 -100 -39z m217 -140 c12 -22 -2 -60 -21 -60 -36
0 -65 50 -42 73 14 14 53 6 63 -13z"/>
<path d="M1350 6240 c-19 -4 -62 -13 -95 -20 -112 -23 -276 -132 -357 -237
-26 -33 -68 -119 -92 -188 -18 -50 -21 -82 -20 -198 l0 -138 64 -125 c41 -79
79 -138 105 -163 38 -36 166 -121 182 -121 5 0 21 -7 37 -15 66 -35 176 -55
265 -49 91 6 204 28 260 52 115 47 236 163 293 280 55 114 70 191 62 327 -6
109 -7 111 -67 235 -75 153 -151 237 -260 289 -115 55 -299 90 -377 71z m164
-75 c48 -8 94 -19 104 -24 9 -5 42 -22 72 -36 30 -15 57 -30 60 -34 3 -3 16
-12 30 -19 14 -8 43 -36 65 -64 22 -27 45 -55 50 -61 22 -25 53 -85 71 -138
29 -83 27 -272 -4 -358 -13 -36 -32 -77 -43 -92 -10 -15 -19 -31 -19 -36 0 -5
-13 -22 -30 -38 -16 -16 -30 -34 -30 -39 -2 -31 -196 -143 -265 -153 -25 -3
-48 -10 -51 -14 -7 -13 -201 -11 -209 1 -3 6 -18 10 -32 10 -23 0 -140 46
-153 60 -11 11 -70 50 -76 50 -9 0 -84 81 -84 91 0 4 -8 14 -18 21 -21 16 -56
88 -83 172 -52 168 -2 384 120 519 32 35 136 117 149 117 5 0 15 6 21 14 6 7
26 17 44 21 212 51 198 50 311 30z"/>
<path d="M1649 5905 c-14 -8 -38 -30 -53 -50 -23 -30 -29 -49 -33 -114 l-6
-78 38 -29 c21 -16 52 -41 70 -56 26 -22 43 -28 81 -28 46 0 52 3 112 61 62
62 62 62 62 120 0 32 -6 71 -12 86 -15 34 -39 63 -51 63 -5 0 -20 9 -34 20
-31 24 -133 27 -174 5z m208 -161 c12 -19 11 -24 -6 -45 -16 -20 -21 -21 -35
-10 -16 14 -22 62 -9 75 12 11 35 2 50 -20z"/>
<path d="M2410 5674 c-89 -17 -210 -77 -264 -131 -58 -58 -80 -132 -55 -187
11 -23 8 -29 -34 -69 -92 -90 -129 -218 -90 -309 16 -34 35 -54 83 -86 73 -49
110 -53 196 -21 31 12 59 17 63 13 7 -9 26 -53 55 -131 8 -21 20 -53 26 -71
14 -35 80 -88 129 -102 44 -12 119 9 150 43 68 75 67 74 121 69 76 -7 130 17
168 77 48 73 44 112 -23 246 -30 61 -55 117 -55 126 0 9 15 27 33 39 86 59
114 155 71 238 -8 15 -14 32 -14 37 0 16 -80 91 -117 109 -22 11 -59 16 -120
16 l-87 0 -46 44 c-41 41 -50 45 -105 50 -33 2 -71 2 -85 0z m436 -194 c55
-35 74 -66 74 -125 0 -37 -6 -60 -20 -78 -30 -38 -138 -77 -213 -77 -35 0 -94
-10 -137 -22 -69 -21 -81 -28 -176 -119 -139 -132 -222 -160 -293 -101 -30 25
-35 36 -42 93 -7 63 -7 65 28 116 54 79 55 80 178 86 122 6 181 23 262 75 49
32 118 100 157 157 18 27 21 27 83 22 39 -4 78 -15 99 -27z m-26 -398 c34 -46
50 -76 84 -155 42 -99 -7 -166 -114 -155 -30 3 -41 12 -77 63 -23 33 -42 67
-42 75 -1 8 -15 41 -31 73 -16 32 -32 74 -36 93 l-6 34 58 0 c33 0 66 5 74 10
31 20 55 10 90 -38z m-271 -68 c14 -27 34 -61 44 -74 9 -14 17 -31 17 -40 0
-8 7 -28 15 -44 8 -15 22 -48 30 -73 15 -42 14 -47 -5 -78 -30 -49 -99 -68
-153 -44 -24 11 -55 69 -105 199 -28 72 -28 76 12 120 18 20 37 44 42 52 12
19 45 38 63 35 8 -1 26 -25 40 -53z"/>
<path d="M3400 3965 c-7 -9 -16 -60 -19 -119 -7 -100 -9 -106 -55 -187 -30
-52 -64 -96 -90 -116 -99 -78 -138 -118 -131 -135 12 -31 39 -20 144 59 l102
76 37 -22 c52 -31 104 -54 197 -86 66 -23 91 -26 145 -22 60 5 68 8 99 44 58
66 71 94 71 153 0 36 -6 64 -17 80 -29 43 -91 99 -115 105 -37 8 -137 25 -225
37 l-83 12 0 52 c0 70 -31 104 -60 69z m203 -210 c98 -11 135 -20 162 -37 35
-24 55 -55 55 -88 0 -24 -11 -25 -70 -4 -49 17 -110 11 -110 -10 0 -8 21 -23
48 -36 111 -51 124 -67 77 -88 -54 -25 -111 -15 -230 38 -11 5 -38 14 -60 20
-51 13 -89 45 -82 68 20 67 48 128 63 139 10 7 18 13 18 13 1 0 58 -7 129 -15z"/>
<path d="M11085 6780 c-3 -5 -12 -42 -20 -82 -7 -40 -21 -109 -31 -153 -9 -44
-18 -96 -18 -115 l-1 -35 194 0 195 0 8 30 c5 17 16 64 24 105 17 81 40 188
50 233 l6 27 -200 0 c-121 0 -203 -4 -207 -10z m332 -72 c-4 -18 -17 -82 -29
-143 l-23 -110 -148 -3 -148 -3 6 23 c5 20 33 151 52 241 l6 27 145 0 145 0
-6 -32z"/>
<path d="M5161 6713 c-10 -36 -23 -100 -57 -263 -15 -73 -33 -155 -59 -275 -7
-33 -20 -96 -30 -140 -9 -44 -22 -107 -30 -140 -7 -33 -27 -130 -45 -215 -17
-85 -38 -182 -45 -215 -27 -128 -47 -223 -59 -282 l-13 -63 441 0 c362 0 452
3 500 15 206 54 355 174 421 340 16 41 20 73 20 175 -1 142 -14 186 -79 258
-20 22 -36 42 -36 45 0 4 22 27 50 53 197 184 224 494 58 662 -78 80 -57 77
-570 80 l-457 3 -10 -38z m946 -47 c93 -52 143 -150 143 -285 0 -88 -17 -148
-67 -232 -34 -59 -124 -149 -174 -175 -32 -16 -38 -34 -13 -34 8 0 41 -26 73
-57 47 -48 60 -69 74 -119 34 -120 14 -246 -55 -354 -48 -75 -107 -124 -203
-170 -134 -64 -186 -70 -610 -70 -206 0 -376 4 -379 8 -2 4 2 39 10 77 29 135
75 351 89 415 32 153 48 229 60 285 7 33 20 94 29 135 8 41 29 138 45 215 17
77 42 193 55 258 14 65 28 122 32 128 4 7 144 9 422 7 l417 -3 52 -29z"/>
<path d="M5457 6433 c-3 -4 -10 -33 -16 -63 -5 -30 -22 -108 -36 -174 -14 -65
-25 -122 -25 -127 0 -5 86 -9 193 -9 221 0 247 7 310 81 45 52 61 106 54 178
-5 43 -12 61 -37 85 l-30 31 -204 3 c-112 2 -206 -1 -209 -5z m381 -49 c27 -8
52 -51 52 -92 0 -15 -12 -53 -27 -83 -42 -82 -63 -89 -257 -89 l-159 0 6 33
c24 130 47 221 59 228 15 10 291 12 326 3z"/>
<path d="M5318 5793 c-11 -62 -69 -333 -74 -347 -5 -14 19 -16 220 -16 205 0
230 2 265 20 76 38 130 129 131 218 0 60 -17 101 -56 131 -25 20 -39 21 -254
21 l-228 0 -4 -27z m467 -53 c23 -25 24 -113 2 -155 -20 -39 -65 -81 -100 -94
-33 -13 -363 -15 -371 -3 -3 5 -1 24 3 43 5 19 16 72 26 119 9 47 19 91 21 98
2 9 52 12 202 12 186 0 200 -1 217 -20z"/>
<path d="M9993 6708 c-6 -7 -13 -29 -16 -48 -3 -19 -15 -78 -27 -130 -12 -52
-24 -111 -27 -130 -8 -45 -16 -50 -89 -50 l-61 0 -6 -37 c-3 -21 -15 -81 -27
-133 -12 -52 -24 -110 -27 -127 l-6 -33 61 0 c33 0 63 -4 66 -9 6 -9 0 -48
-34 -201 -11 -52 -25 -115 -30 -140 -5 -25 -21 -98 -35 -164 -14 -65 -25 -137
-25 -161 0 -95 51 -174 142 -221 97 -49 331 -24 491 52 l37 18 0 160 c0 89 -4
167 -9 174 -7 11 -16 10 -47 -6 -56 -28 -166 -54 -178 -42 -11 11 -7 33 60
340 8 36 19 92 25 125 7 33 17 63 23 67 6 4 57 8 113 8 88 0 102 2 106 18 11
41 47 203 62 280 l7 32 -106 0 c-58 0 -108 4 -111 10 -3 5 1 38 9 72 29 128
46 204 52 246 l7 42 -195 0 c-145 0 -198 -3 -205 -12z m327 -65 c-1 -10 -5
-36 -9 -58 -5 -22 -19 -87 -30 -145 -12 -58 -24 -113 -27 -122 -5 -16 5 -18
106 -18 l112 0 -6 -42 c-4 -24 -14 -74 -24 -113 l-17 -70 -111 -3 -111 -3 -62
-293 c-69 -318 -69 -326 -13 -347 31 -12 97 -4 148 17 20 8 37 14 39 12 1 -2
5 -52 8 -111 4 -85 2 -111 -9 -122 -36 -35 -276 -83 -359 -70 -22 3 -64 17
-93 30 -45 21 -56 32 -74 72 -28 64 -21 142 36 408 46 214 74 342 82 383 4 21
1 22 -61 22 -63 0 -65 1 -65 25 0 14 6 54 14 88 8 34 17 74 21 90 5 26 7 27
74 27 l68 0 18 83 c10 45 24 107 31 138 8 31 14 64 14 72 0 9 4 27 10 41 l10
26 140 0 c127 0 140 -2 140 -17z"/>
<path d="M7093 6346 c-210 -78 -384 -260 -459 -481 -22 -65 -44 -188 -44 -245
0 -53 26 -203 40 -229 5 -9 19 -38 32 -66 26 -55 106 -143 154 -168 83 -43
139 -57 227 -57 52 0 112 7 145 16 62 18 168 67 193 90 13 12 20 8 52 -30 40
-49 102 -76 172 -76 50 0 156 20 169 31 5 4 15 36 22 71 13 66 43 207 51 246
4 18 1 22 -20 22 -41 0 -41 -10 -2 175 10 44 23 107 30 140 17 79 39 182 59
275 8 41 24 118 36 170 11 52 20 101 20 108 0 9 -46 12 -199 12 l-198 0 -6
-27 c-13 -57 -21 -59 -74 -21 -72 52 -131 68 -242 67 -75 0 -110 -5 -158 -23z
m249 -37 c89 -19 159 -69 206 -149 l26 -44 13 59 c7 33 16 74 21 90 l8 30 137
3 c159 3 157 4 137 -86 -19 -85 -36 -168 -55 -257 -10 -44 -23 -107 -31 -140
-7 -33 -27 -127 -44 -210 l-32 -149 28 -24 c26 -23 27 -26 16 -70 -6 -26 -16
-74 -23 -108 -16 -90 -15 -89 -117 -89 -139 0 -189 38 -181 138 l4 45 -58 -54
c-82 -76 -161 -113 -287 -134 -158 -27 -315 43 -390 176 -95 166 -94 388 5
598 86 184 262 333 438 371 78 17 113 18 179 4z"/>
<path d="M7194 6041 c-162 -82 -268 -291 -230 -454 18 -78 53 -127 116 -161
44 -24 60 -28 108 -24 78 6 147 41 213 109 50 50 58 64 72 125 57 249 57 236
7 321 -40 70 -94 106 -168 111 -48 3 -66 -1 -118 -27z m196 -62 c16 -13 40
-43 51 -67 20 -41 21 -49 9 -110 -6 -37 -17 -94 -22 -127 -13 -70 -38 -109
-108 -160 -66 -49 -131 -68 -180 -55 -89 24 -125 85 -124 205 1 87 19 140 74
220 78 114 215 156 300 94z"/>
<path d="M8730 6350 c-172 -55 -272 -134 -341 -267 -33 -63 -34 -70 -34 -173
0 -104 1 -110 30 -152 46 -65 122 -110 287 -166 167 -58 188 -69 188 -97 -1
-46 -58 -77 -140 -77 -92 1 -184 40 -275 117 l-64 55 -98 -122 c-54 -67 -102
-128 -106 -135 -14 -23 97 -120 188 -163 126 -59 190 -72 341 -67 209 6 313
45 427 158 76 76 113 144 128 240 31 195 -64 301 -348 390 -174 54 -183 60
-164 107 28 68 183 71 284 6 21 -14 56 -41 78 -61 22 -20 43 -32 48 -27 4 5
53 62 109 126 56 64 102 121 102 127 0 16 -107 106 -160 135 -118 64 -354 87
-480 46z m345 -52 c85 -21 215 -105 215 -138 0 -8 -33 -50 -73 -94 l-72 -78
-40 32 c-58 47 -130 78 -200 85 -77 9 -135 -6 -180 -46 -31 -27 -35 -37 -35
-79 0 -72 21 -88 188 -136 110 -32 218 -82 264 -123 101 -89 86 -280 -33 -415
-137 -156 -501 -202 -720 -91 -55 28 -139 94 -139 110 0 22 123 173 141 174 9
1 22 -6 29 -14 20 -24 118 -79 174 -98 69 -23 163 -31 213 -18 81 22 131 106
101 169 -16 32 -54 52 -168 87 -300 92 -379 181 -324 366 9 30 24 70 34 89 57
110 211 207 365 229 67 10 199 5 260 -11z"/>
<path d="M12240 6351 c-106 -33 -161 -60 -256 -127 -263 -185 -387 -569 -268
-831 8 -17 14 -34 14 -38 0 -14 66 -100 99 -129 49 -44 127 -89 188 -109 74
-24 254 -23 353 3 258 66 458 263 542 534 26 84 31 260 10 341 -48 180 -156
296 -331 356 -72 25 -270 25 -351 0z m355 -63 c112 -37 214 -137 258 -255 18
-49 22 -78 21 -193 0 -115 -3 -144 -23 -198 -40 -110 -92 -192 -176 -277 -132
-133 -273 -200 -447 -212 -304 -20 -498 163 -498 471 0 109 21 198 68 291 108
212 288 351 507 391 88 16 211 8 290 -18z"/>
<path d="M12290 6053 c-146 -51 -260 -223 -260 -394 0 -247 208 -340 401 -180
51 42 102 123 129 204 41 120 17 271 -52 333 -59 55 -133 67 -218 37z m181
-81 c16 -17 36 -57 45 -89 14 -49 15 -66 4 -127 -23 -128 -88 -224 -185 -272
-146 -71 -245 -4 -245 165 1 98 11 140 52 208 34 57 114 127 165 143 15 5 52
8 82 6 46 -2 59 -8 82 -34z"/>
<path d="M14029 6351 c-31 -10 -84 -32 -119 -49 -35 -18 -65 -32 -68 -32 -2 0
-2 18 2 40 l6 40 -190 0 c-172 0 -190 -2 -190 -17 0 -9 -6 -44 -14 -77 -8 -34
-21 -97 -30 -141 -10 -44 -24 -110 -31 -147 -21 -96 -41 -190 -60 -283 -10
-44 -23 -107 -30 -140 -8 -33 -21 -96 -30 -140 -9 -44 -23 -107 -30 -140 -7
-33 -16 -79 -20 -102 l-7 -43 201 0 c200 0 201 0 205 23 3 12 12 55 20 95 22
99 42 192 61 287 10 44 23 105 30 135 7 30 16 75 20 100 18 107 164 240 264
240 70 0 85 -47 57 -185 -29 -141 -46 -222 -66 -315 -11 -52 -32 -151 -46
-220 -13 -69 -27 -133 -30 -142 -5 -17 9 -18 199 -18 l204 0 17 83 c8 45 22
111 30 147 7 36 21 101 31 145 9 44 23 109 31 145 15 73 42 202 54 270 16 86
12 226 -10 288 -24 70 -84 129 -157 155 -69 23 -227 23 -304 -2z m270 -47
c106 -31 161 -118 161 -252 0 -54 -34 -248 -74 -427 -8 -33 -21 -96 -30 -140
-10 -44 -21 -98 -26 -120 -5 -22 -16 -75 -25 -117 l-16 -78 -139 0 c-76 0
-141 4 -144 9 -3 5 3 51 15 102 11 52 24 114 29 139 17 84 69 325 79 370 6 25
11 80 11 123 0 73 -2 81 -28 107 -53 52 -135 50 -226 -7 -101 -63 -161 -143
-185 -251 -18 -78 -24 -103 -89 -412 l-37 -175 -144 -3 -144 -3 7 52 c4 28 13
77 20 108 8 31 21 92 31 136 9 44 23 109 30 145 8 36 28 133 45 215 17 83 37
177 44 210 13 56 42 191 52 243 4 21 8 22 134 22 148 0 140 7 115 -95 -21 -89
-20 -91 38 -40 134 119 356 181 496 139z"/>
<path d="M10980 6293 c-6 -32 -17 -85 -24 -118 -8 -33 -21 -96 -31 -140 -9
-44 -23 -109 -31 -145 -7 -36 -28 -132 -44 -215 -17 -82 -37 -177 -44 -210 -8
-33 -21 -96 -30 -140 -17 -79 -34 -153 -43 -187 -4 -17 10 -18 199 -18 l204 0
13 63 c7 34 19 89 26 122 7 33 21 96 30 140 10 44 23 107 30 140 8 33 21 96
30 140 10 44 23 107 31 140 7 33 18 85 24 115 6 30 17 84 24 120 8 36 21 99
30 140 8 41 18 83 21 93 7 16 -7 17 -198 17 l-206 0 -11 -57z m343 0 c3 -5
-15 -100 -39 -213 -24 -113 -51 -239 -59 -280 -9 -41 -20 -93 -25 -115 -19
-88 -40 -187 -70 -330 -17 -82 -34 -158 -36 -167 -5 -16 -21 -18 -150 -18 -79
0 -144 2 -144 3 0 5 34 165 60 287 12 52 28 129 36 170 17 82 27 131 74 350
17 80 35 170 41 200 6 30 15 70 20 88 l11 32 138 0 c76 0 141 -3 143 -7z"/>
<path d="M8030 3754 c-69 -13 -152 -36 -177 -49 -15 -8 -33 -15 -39 -15 -6 0
-45 -22 -85 -48 -177 -116 -272 -288 -272 -492 0 -82 4 -103 27 -152 51 -109
150 -174 377 -249 146 -48 216 -83 234 -119 12 -23 11 -32 -5 -67 -28 -63 -63
-77 -190 -78 -87 0 -116 4 -170 25 -105 39 -202 103 -228 149 -13 22 -27 43
-31 45 -4 3 -32 -29 -61 -72 -30 -42 -87 -121 -127 -175 -40 -54 -73 -102 -73
-108 0 -24 135 -119 229 -161 225 -103 519 -115 728 -32 146 58 238 133 307
248 54 90 70 154 71 281 0 104 -2 114 -32 175 -64 132 -155 188 -453 275 -114
34 -170 71 -170 112 0 45 36 98 80 118 58 26 186 26 255 0 94 -36 164 -83 186
-126 11 -22 24 -39 29 -37 12 4 260 335 260 347 0 12 -151 111 -220 144 -97
47 -147 58 -290 62 -74 2 -146 1 -160 -1z m236 -54 c120 -20 257 -76 331 -138
l33 -27 -91 -117 -90 -117 -48 34 c-130 94 -295 129 -426 90 -62 -18 -121 -77
-131 -132 -9 -46 1 -101 23 -126 23 -25 116 -68 213 -97 294 -86 381 -156 409
-326 12 -76 -7 -200 -42 -275 -52 -109 -169 -214 -289 -259 -202 -75 -493 -67
-683 19 -85 39 -197 113 -191 127 7 19 168 239 177 242 5 2 27 -12 49 -31 57
-48 148 -95 230 -118 81 -22 230 -26 294 -7 58 18 113 78 122 134 15 101 -39
147 -259 219 -212 70 -313 132 -360 219 -19 35 -22 57 -21 146 1 119 19 184
74 267 101 149 227 227 425 263 117 21 168 23 251 10z"/>
<path d="M9640 3754 c-58 -11 -154 -36 -169 -44 -9 -5 -38 -19 -65 -31 -27
-11 -54 -25 -60 -30 -6 -5 -29 -22 -52 -38 -47 -33 -122 -119 -154 -175 -54
-98 -65 -144 -65 -281 0 -125 1 -132 28 -177 60 -100 140 -150 367 -228 79
-27 164 -62 189 -78 39 -24 46 -33 49 -64 4 -45 -26 -91 -72 -110 -19 -8 -69
-13 -131 -12 -111 1 -188 22 -280 77 -68 41 -84 55 -115 104 -32 50 -24 55
-122 -79 -177 -244 -173 -236 -152 -260 30 -33 134 -103 198 -133 287 -135
642 -123 879 29 146 93 230 241 244 426 12 174 -49 294 -193 378 -47 27 -148
64 -294 107 -126 38 -160 63 -160 118 0 89 61 131 194 131 127 0 260 -59 311
-137 17 -25 33 -46 36 -46 3 -1 65 77 137 173 148 197 144 171 37 242 -72 49
-172 98 -240 120 -49 15 -292 28 -345 18z m236 -54 c69 -11 162 -40 214 -66
64 -32 140 -86 140 -100 0 -7 -37 -62 -82 -121 -45 -59 -83 -110 -84 -112 -2
-2 -20 10 -41 26 -59 45 -83 58 -153 83 -78 27 -200 37 -268 21 -121 -30 -188
-156 -132 -249 23 -38 97 -75 220 -112 246 -72 337 -128 386 -238 32 -70 34
-217 4 -307 -41 -123 -140 -233 -265 -294 -178 -88 -476 -96 -685 -20 -105 39
-230 117 -230 145 0 9 21 44 48 80 26 35 63 86 82 114 38 53 50 59 71 34 17
-21 108 -79 162 -104 102 -47 296 -66 378 -38 102 34 156 136 115 216 -27 53
-86 85 -246 137 -223 72 -318 132 -364 230 -61 128 -11 339 111 476 92 101
206 160 368 189 117 22 168 23 251 10z"/>
<path d="M10845 3740 c-3 -5 -13 -44 -22 -87 -8 -43 -21 -105 -28 -138 -7 -33
-21 -96 -30 -140 -10 -44 -23 -107 -30 -140 -26 -121 -44 -202 -59 -275 -8
-41 -22 -106 -31 -145 -8 -38 -25 -115 -36 -170 -11 -55 -40 -192 -65 -305
-24 -113 -44 -208 -44 -212 0 -5 92 -8 205 -8 204 0 205 0 209 23 9 44 39 183
51 242 8 33 21 96 30 140 10 44 23 106 31 138 8 32 14 67 14 78 0 18 10 19
260 19 l260 0 -6 -32 c-3 -18 -14 -69 -24 -113 -10 -44 -23 -107 -30 -140 -7
-33 -18 -87 -26 -120 -12 -54 -28 -132 -41 -207 l-5 -28 205 0 206 0 11 58 c6
31 15 75 20 97 5 22 16 76 26 120 18 86 33 159 58 270 8 39 20 95 26 125 6 30
17 84 24 120 22 102 43 198 61 285 10 44 23 107 30 140 7 33 21 96 30 140 10
44 24 109 31 145 8 36 17 80 20 98 l7 32 -206 0 c-230 0 -209 8 -222 -80 -4
-25 -13 -70 -20 -100 -12 -51 -24 -106 -61 -285 -9 -38 -20 -87 -25 -107 l-10
-38 -255 0 -256 0 7 43 c4 23 13 67 20 97 12 51 24 106 61 285 9 39 19 86 25
106 21 84 34 79 -190 79 -119 0 -202 -4 -206 -10z m335 -69 c0 -9 -13 -80 -30
-157 -16 -76 -37 -173 -46 -214 -8 -41 -22 -102 -30 -136 -8 -33 -14 -66 -14
-72 0 -9 75 -12 312 -10 l313 3 7 25 c8 28 19 79 78 365 25 119 48 205 57 212
9 7 63 12 144 12 104 2 130 -1 135 -13 4 -12 -34 -203 -120 -606 -8 -36 -22
-101 -31 -145 -10 -44 -23 -107 -30 -140 -22 -99 -43 -200 -86 -400 -22 -104
-42 -198 -45 -207 -5 -16 -21 -18 -150 -18 -167 0 -154 -14 -123 135 20 97 28
134 64 300 9 44 23 110 29 148 l13 67 -313 0 -313 0 -16 -77 c-9 -43 -20 -96
-25 -118 -13 -58 -46 -213 -72 -340 l-23 -110 -139 -3 c-77 -1 -143 1 -148 6
-9 9 -3 43 42 252 12 52 25 115 30 140 5 25 18 88 30 140 31 143 49 227 66
310 9 41 22 102 29 135 7 33 20 94 28 135 65 305 78 367 83 382 4 15 23 18
142 20 75 2 140 2 145 0 4 -2 7 -11 7 -21z"/>
</g>
</svg>
